<svg width="25" height="23" viewBox="0 0 25 23" fill="none" xmlns="http://www.w3.org/2000/svg">
<path d="M9.75 21.125H2.875C2.51033 21.125 2.16059 20.9801 1.90273 20.7223C1.64487 20.4644 1.5 20.1147 1.5 19.75V18.375C1.5 17.281 1.9346 16.2318 2.70818 15.4582C3.48177 14.6846 4.53098 14.25 5.625 14.25H8.375M22.125 15.625C22.125 16.719 21.6904 17.7682 20.9168 18.5418C20.1432 19.3154 19.094 19.75 18 19.75M22.125 15.625C22.125 14.531 21.6904 13.4818 20.9168 12.7082C20.1432 11.9346 19.094 11.5 18 11.5M22.125 15.625H23.5ZM18 19.75C16.906 19.75 15.8568 19.3154 15.0832 18.5418C14.3096 17.7682 13.875 16.719 13.875 15.625M18 19.75V21.125ZM13.875 15.625C13.875 14.531 14.3096 13.4818 15.0832 12.7082C15.8568 11.9346 16.906 11.5 18 11.5M13.875 15.625H12.5ZM18 11.5V10.125ZM15.0832 12.7082L14.1115 11.7365ZM21.8885 19.5135L20.9168 18.5418ZM15.0832 18.5418L14.1115 19.5135ZM21.8885 11.7365L20.9168 12.7082ZM12.5 6C12.5 7.09402 12.0654 8.14323 11.2918 8.91682C10.5182 9.6904 9.46902 10.125 8.375 10.125C7.28098 10.125 6.23177 9.6904 5.45818 8.91682C4.6846 8.14323 4.25 7.09402 4.25 6C4.25 4.90598 4.6846 3.85677 5.45818 3.08318C6.23177 2.3096 7.28098 1.875 8.375 1.875C9.46902 1.875 10.5182 2.3096 11.2918 3.08318C12.0654 3.85677 12.5 4.90598 12.5 6Z" fill="#030713"/>
<path d="M9.75 21.125H2.875C2.51033 21.125 2.16059 20.9801 1.90273 20.7223C1.64487 20.4644 1.5 20.1147 1.5 19.75V18.375C1.5 17.281 1.9346 16.2318 2.70818 15.4582C3.48177 14.6846 4.53098 14.25 5.625 14.25H8.375M22.125 15.625C22.125 16.719 21.6904 17.7682 20.9168 18.5418M22.125 15.625C22.125 14.531 21.6904 13.4818 20.9168 12.7082M22.125 15.625H23.5M20.9168 18.5418C20.1432 19.3154 19.094 19.75 18 19.75M20.9168 18.5418L21.8885 19.5135M18 19.75C16.906 19.75 15.8568 19.3154 15.0832 18.5418M18 19.75V21.125M20.9168 12.7082C20.1432 11.9346 19.094 11.5 18 11.5M20.9168 12.7082L21.8885 11.7365M18 11.5C16.906 11.5 15.8568 11.9346 15.0832 12.7082M18 11.5V10.125M15.0832 18.5418C14.3096 17.7682 13.875 16.719 13.875 15.625M15.0832 18.5418L14.1115 19.5135M13.875 15.625C13.875 14.531 14.3096 13.4818 15.0832 12.7082M13.875 15.625H12.5M15.0832 12.7082L14.1115 11.7365M12.5 6C12.5 7.09402 12.0654 8.14323 11.2918 8.91682C10.5182 9.6904 9.46902 10.125 8.375 10.125C7.28098 10.125 6.23177 9.6904 5.45818 8.91682C4.6846 8.14323 4.25 7.09402 4.25 6C4.25 4.90598 4.6846 3.85677 5.45818 3.08318C6.23177 2.3096 7.28098 1.875 8.375 1.875C9.46902 1.875 10.5182 2.3096 11.2918 3.08318C12.0654 3.85677 12.5 4.90598 12.5 6Z" stroke="url(#paint0_linear_85_32)" stroke-width="2" stroke-linecap="square" stroke-linejoin="round"/>
<defs>
<linearGradient id="paint0_linear_85_32" x1="12.5" y1="1.875" x2="12.5" y2="21.125" gradientUnits="userSpaceOnUse">
<stop stop-color="#80F4FC"/>
<stop offset="1" stop-color="#3591D0"/>
</linearGradient>
</defs>
</svg>
