<svg width="64px" height="64px" viewBox="0 0 36 34" fill="none" xmlns="http://www.w3.org/2000/svg">
    <g clip-path="url(#clip0_85_14)" filter="url(#filter0_di_85_14)">
        <path
            d="M22.1174 4.7L25.4963 5.44727C25.5845 5.46226 25.6561 5.52227 25.6763 5.59614L26.5671 8.41191C26.5912 8.49458 26.6784 8.55269 26.7799 8.55269C26.8824 8.55269 26.9687 8.49458 26.9917 8.41191L27.8839 5.59614C27.9028 5.52231 27.9748 5.46226 28.0629 5.44727L31.4423 4.7C31.5411 4.68457 31.6113 4.61113 31.6113 4.52651C31.6113 4.44111 31.5411 4.36919 31.4423 4.35269L28.0629 3.60576C27.9748 3.59004 27.9028 3.53076 27.8839 3.45693L26.9917 0.641162C26.9686 0.559229 26.8823 0.5 26.7799 0.5C26.6784 0.5 26.5911 0.559229 26.5671 0.641162L25.6763 3.45693C25.6561 3.53076 25.5845 3.59004 25.4963 3.60576L22.1174 4.35269C22.0177 4.36924 21.9485 4.44116 21.9485 4.52651C21.9485 4.61113 22.0177 4.68462 22.1174 4.7Z"
            fill="url(#paint0_linear_85_14)" />
        <path
            d="M25.5733 16.4439L24.0396 16.1051C23.9994 16.0973 23.9667 16.0712 23.9579 16.0374L23.5536 14.7593C23.543 14.722 23.5037 14.6954 23.4572 14.6954C23.4115 14.6954 23.3718 14.722 23.3607 14.7593L22.9564 16.0374C22.9472 16.0712 22.9149 16.0973 22.8747 16.1051L21.3415 16.4439C21.2963 16.4512 21.2644 16.4843 21.2644 16.5227C21.2644 16.5612 21.2963 16.5943 21.3415 16.602L22.8747 16.9405C22.9149 16.9473 22.9472 16.9751 22.9564 17.0089L23.3607 18.2862C23.3718 18.3235 23.4115 18.3501 23.4572 18.3501C23.5038 18.3501 23.543 18.3235 23.5536 18.2862L23.9579 17.0089C23.9667 16.9751 23.9994 16.9473 24.0396 16.9405L25.5733 16.602C25.6176 16.5943 25.65 16.5612 25.65 16.5227C25.6499 16.4843 25.6176 16.4512 25.5733 16.4439Z"
            fill="url(#paint1_linear_85_14)" />
        <path
            d="M5.21723 7.33958L7.63153 7.87263C7.69516 7.88381 7.74555 7.92654 7.76073 7.97957L8.3967 9.99148C8.41422 10.0511 8.47657 10.0923 8.54905 10.0923C8.62194 10.0923 8.68381 10.0511 8.70092 9.99148L9.33737 7.97957C9.35079 7.92654 9.40294 7.88381 9.46616 7.87263L11.8809 7.33958C11.9515 7.32727 12.0018 7.27419 12.0018 7.21418C12.0018 7.15418 11.9515 7.10266 11.8809 7.09036L9.46616 6.55647C9.40294 6.54495 9.35079 6.50344 9.33737 6.45032L8.70092 4.43728C8.68381 4.37878 8.622 4.33728 8.54905 4.33728C8.47663 4.33728 8.41428 4.37878 8.3967 4.43728L7.76073 6.45037C7.74549 6.50344 7.69516 6.54495 7.63153 6.55652L5.21723 7.09041C5.14522 7.10271 5.09583 7.15422 5.09583 7.21423C5.09583 7.27419 5.14522 7.32732 5.21723 7.33958Z"
            fill="url(#paint2_linear_85_14)" />
        <path
            d="M26.2379 14.0204C25.7764 13.5704 25.1169 13.1712 24.3037 12.8366H24.3046C22.6827 12.1673 20.4586 11.7578 18.0009 11.7566L17.994 11.7569V11.7566C16.38 11.7569 14.8652 11.9335 13.5558 12.2443C12.2464 12.5551 11.1443 12.9981 10.3504 13.5366L10.3518 13.5358C9.8215 13.8951 9.4315 14.2959 9.21506 14.7316C9.09131 14.979 9.02627 15.2397 9.02674 15.5039C9.02674 15.7212 9.23814 15.8978 9.49935 15.8978C9.76062 15.8978 9.97197 15.7212 9.97197 15.5039C9.97244 15.3451 10.0085 15.1939 10.0883 15.0324C10.2263 14.7524 10.5083 14.4439 10.9472 14.1478L10.9486 14.147C11.6021 13.7008 12.6 13.2885 13.8147 13.002C15.0295 12.7131 16.463 12.5443 17.994 12.5447H18.0189C20.3409 12.5451 22.4386 12.9424 23.8841 13.5424L23.8855 13.5428C24.611 13.8405 25.1709 14.1904 25.5194 14.532C25.6948 14.7032 25.8194 14.8712 25.8992 15.0324C25.9989 15.2335 26.2749 15.329 26.5163 15.2458C26.7577 15.1628 26.8722 14.9328 26.7725 14.7316C26.6492 14.4831 26.4692 14.245 26.2379 14.0204Z"
            fill="url(#paint3_linear_85_14)" />
        <path
            d="M31.4714 13.7796C31.272 13.3789 30.9992 13.0062 30.6701 12.662C30.341 12.3181 29.9561 12.002 29.5278 11.7112L29.5015 11.6935L29.5269 11.7112C28.2401 10.8396 26.5467 10.1735 24.5852 9.70581H24.5847C22.6214 9.24082 20.3815 8.9812 18 8.9812C16.1852 8.9812 14.4535 9.13198 12.8631 9.40928C11.2726 9.68662 9.82339 10.0904 8.57353 10.605L8.57259 10.6054C7.32413 11.1216 6.26259 11.75 5.47474 12.5166L5.48903 12.5019L5.47427 12.5166C5.08105 12.9004 4.75614 13.3216 4.52857 13.7796C4.30058 14.2381 4.17366 14.7323 4.17407 15.2412V19.2389C4.17366 19.7481 4.30058 20.2427 4.52857 20.7012C4.72796 21.102 5.00077 21.4742 5.32984 21.8185C5.65937 22.1627 6.0438 22.4785 6.47206 22.7692L6.473 22.7696C7.75978 23.6404 9.45267 24.3081 11.4142 24.775L11.4248 24.7769C13.386 25.2404 15.6221 25.4997 18 25.5001H18.0004C19.8147 25.4997 21.5464 25.3489 23.1369 25.0716C24.7274 24.7942 26.1766 24.39 27.4264 23.8758L27.4273 23.8751C28.6758 23.3588 29.7368 22.73 30.5251 21.9643L30.5256 21.9635C30.9188 21.5804 31.2433 21.1597 31.4709 20.7012L31.4566 20.7293L31.4713 20.7012C31.6988 20.2427 31.8258 19.7481 31.8258 19.2389V15.2412C31.8258 14.7323 31.6989 14.2381 31.4714 13.7796ZM7.26782 21.3208C7.12245 21.2066 6.98675 21.0904 6.86587 20.9731C6.57923 20.6931 6.36413 20.4066 6.22058 20.1181C6.07702 19.8289 6.00507 19.5377 6.00507 19.2389V17.4266C6.28521 17.7147 6.61614 17.9866 6.99044 18.2413C7.0805 18.3016 7.17278 18.3613 7.26782 18.4205V21.3208ZM9.9189 22.7135C9.73661 22.6474 9.55708 22.5796 9.38487 22.5082C8.9838 22.3428 8.61454 22.1662 8.27769 21.982V18.9705C8.7803 19.2109 9.3295 19.4313 9.9189 19.6297V22.7135ZM13.2018 23.5716C12.3701 23.425 11.5896 23.2416 10.8701 23.0273H10.9296V19.937C11.1608 20.0008 11.3981 20.0612 11.6399 20.1189C12.1402 20.2374 12.6627 20.3412 13.2018 20.4316V23.5716ZM17.4946 23.9696C16.3509 23.9504 15.2515 23.8635 14.2121 23.7235V20.5789C15.2575 20.7135 16.3569 20.7923 17.4946 20.8108V23.9696ZM21.9143 23.7046C20.838 23.8542 19.6961 23.9481 18.5053 23.9673V20.8127C19.6887 20.7935 20.832 20.7077 21.9143 20.5646V23.7046ZM25.1972 23.0081C24.8409 23.1158 24.4698 23.2158 24.0835 23.3073C23.7106 23.3958 23.322 23.4746 22.9241 23.5469V20.4108C23.724 20.2731 24.4846 20.1016 25.1972 19.9012V23.0081ZM27.8487 21.9104C27.3706 22.1835 26.8204 22.4374 26.207 22.6681V19.5858C26.5024 19.4838 26.789 19.3769 27.0627 19.2643C27.3364 19.1508 27.5981 19.0319 27.8487 18.9088V21.9104ZM29.9949 19.2389C29.9949 19.5377 29.9229 19.8289 29.7789 20.1181C29.5943 20.4919 29.2846 20.8639 28.8586 21.2204V18.3766H28.7986C29.2176 18.11 29.5892 17.8258 29.9017 17.5216C29.9335 17.4904 29.9639 17.4589 29.9948 17.4273V19.2389H29.9949ZM29.7789 16.1197C29.5297 16.6243 29.0543 17.125 28.3712 17.5885C27.3489 18.2839 25.866 18.887 24.0835 19.3089C22.3016 19.732 20.2209 19.9762 18 19.9762C14.6165 19.9774 11.556 19.407 9.38493 18.5097C8.29942 18.0624 7.43909 17.5347 6.86587 16.9743C6.57923 16.6947 6.36413 16.4082 6.22058 16.1197C6.07702 15.8305 6.00507 15.5397 6.00507 15.2413C6.00507 14.9428 6.07702 14.6521 6.22058 14.3628C6.47077 13.8578 6.94521 13.357 7.62876 12.8943C8.65157 12.1985 10.134 11.5951 11.9165 11.1732C13.6985 10.7505 15.7796 10.5066 18 10.5066C21.3836 10.5051 24.4435 11.0759 26.6147 11.9728C27.7006 12.4197 28.5614 12.9482 29.1337 13.5078C29.4208 13.7874 29.6359 14.0739 29.779 14.3627C29.923 14.652 29.9949 14.9427 29.9949 15.2412C29.9949 15.5397 29.9229 15.8304 29.7789 16.1197Z"
            fill="url(#paint4_linear_85_14)" />
    </g>
    <defs>
        <filter id="filter0_di_85_14" x="-1" y="0.5" width="38" height="33" filterUnits="userSpaceOnUse"
            color-interpolation-filters="sRGB">
            <feFlood flood-opacity="0" result="BackgroundImageFix" />
            <feColorMatrix in="SourceAlpha" type="matrix" values="0 0 0 0 0 0 0 0 0 0 0 0 0 0 0 0 0 0 127 0"
                result="hardAlpha" />
            <feOffset dy="4" />
            <feGaussianBlur stdDeviation="2" />
            <feComposite in2="hardAlpha" operator="out" />
            <feColorMatrix type="matrix" values="0 0 0 0 0 0 0 0 0 0 0 0 0 0 0 0 0 0 0.25 0" />
            <feBlend mode="normal" in2="BackgroundImageFix" result="effect1_dropShadow_85_14" />
            <feBlend mode="normal" in="SourceGraphic" in2="effect1_dropShadow_85_14" result="shape" />
            <feColorMatrix in="SourceAlpha" type="matrix" values="0 0 0 0 0 0 0 0 0 0 0 0 0 0 0 0 0 0 127 0"
                result="hardAlpha" />
            <feOffset dy="4" />
            <feGaussianBlur stdDeviation="2" />
            <feComposite in2="hardAlpha" operator="arithmetic" k2="-1" k3="1" />
            <feColorMatrix type="matrix" values="0 0 0 0 0 0 0 0 0 0 0 0 0 0 0 0 0 0 0.25 0" />
            <feBlend mode="normal" in2="shape" result="effect2_innerShadow_85_14" />
        </filter>
        <linearGradient id="paint0_linear_85_14" x1="26.7799" y1="0.5" x2="26.7799" y2="8.55269"
            gradientUnits="userSpaceOnUse">
            <stop stop-color="#80F4FC" />
            <stop offset="1" stop-color="#3591D0" />
        </linearGradient>
        <linearGradient id="paint1_linear_85_14" x1="23.4572" y1="14.6954" x2="23.4572" y2="18.3501"
            gradientUnits="userSpaceOnUse">
            <stop stop-color="#80F4FC" />
            <stop offset="1" stop-color="#3591D0" />
        </linearGradient>
        <linearGradient id="paint2_linear_85_14" x1="8.54881" y1="4.33728" x2="8.54881" y2="10.0923"
            gradientUnits="userSpaceOnUse">
            <stop stop-color="#80F4FC" />
            <stop offset="1" stop-color="#3591D0" />
        </linearGradient>
        <linearGradient id="paint3_linear_85_14" x1="17.9176" y1="11.7566" x2="17.9176" y2="15.8978"
            gradientUnits="userSpaceOnUse">
            <stop stop-color="#80F4FC" />
            <stop offset="1" stop-color="#3591D0" />
        </linearGradient>
        <linearGradient id="paint4_linear_85_14" x1="17.9999" y1="8.9812" x2="17.9999" y2="25.5"
            gradientUnits="userSpaceOnUse">
            <stop stop-color="#80F4FC" />
            <stop offset="1" stop-color="#3591D0" />
        </linearGradient>
        <clipPath id="clip0_85_14">
            <rect width="30" height="25" fill="white" transform="translate(3 0.5)" />
        </clipPath>
    </defs>
</svg>